# AST/ASF file generated using VICON BodyLanguage
# -----------------------------------------------
:version 1.10
:name VICON
:units
  mass 1.0
  length 0.45
  angle deg
:documentation
   .ast/.asf automatically generated from VICON data using
   VICON BodyBuilder and BodyLanguage model FoxedUp or BRILLIANT.MOD
:root
   order TX TY TZ RX RY RZ
   axis XYZ
   position 0 0 0  
   orientation 0 0 0 
:bonedata
  begin
     id 1 
     name lhipjoint
     direction 0.625129 -0.738222 0.253461 
     length 2.5165 
     axis 0 0 0  XYZ
  end
  begin
     id 2 
     name lfemur
     direction 0.34202 -0.939693 0  
     length 7.54288  
     axis 0 0 20  XYZ
    dof rx ry rz
    limits (-160.0 20.0)
           (-70.0 70.0)
           (-60.0 70.0)
  end
  begin
     id 3 
     name ltibia
     direction 0.34202 -0.939693 0   
     length 7.71864   
     axis 0 0 20   XYZ
    dof rx
    limits (-10.0 170.0)
  end
  begin
     id 4 
     name lfoot
     direction 0.0772037 -0.212115 0.97419   
     length 2.18429   
     axis -90 7.62852e-016 20   XYZ
    dof rx rz
    limits (-45.0 90.0)
           (-70.0 20.0)
  end
  begin
     id 5 
     name ltoes
     direction 1.53513e-011 -4.21834e-011 1   
     length 1.09718   
     axis -90 7.62852e-016 20   XYZ
    dof rx
    limits (-90.0 20.0)
  end
  begin
     id 6 
     name rhipjoint
     direction -0.621946 -0.740623 0.254285   
     length 2.50835  
     axis 0 0 0  XYZ 
  end
  begin
     id 7 
     name rfemur
     direction -0.34202 -0.939693 0   
     length 7.43366   
     axis 0 0 -20   XYZ
    dof rx ry rz
    limits (-160.0 20.0)
           (-70.0 70.0)
           (-70.0 60.0)
  end
  begin
     id 8 
     name rtibia
     direction -0.34202 -0.939693 0   
     length 7.77122   
     axis 0 0 -20   XYZ
    dof rx
    limits (-10.0 170.0)
 end
 begin
     id 9 
     name rfoot
     direction -0.082694 -0.2272 0.970331   
     length 2.2293  
     axis -90 -7.62852e-016 -20   XYZ
    dof rx rz
    limits (-45.0 90.0)
           (-20.0 70.0)
  end
  begin
     id 10 
     name rtoes
     direction -1.53565e-011 -4.21695e-011 1   
     length 1.1178   
     axis -90 -7.62852e-016 -20   XYZ
    dof rx
    limits (-90.0 20.0)
  end
  begin
     id 11 
     name lowerback
     direction -0.000695208 0.988391 -0.151929   
     length 1.95077   
     axis 0 0 0   XYZ
    dof rx ry rz
    limits (-20.0 45.0)
           (-30.0 30.0)
           (-30.0 30.0)
  end
  begin
     id 12 
     name upperback
     direction -0.00268925 0.999885 -0.0149203   
     length 1.96246   
     axis 0 0 0   XYZ
    dof rx ry rz
    limits (-20.0 45.0)
           (-30.0 30.0)
           (-30.0 30.0)
  end
  begin
     id 13 
     name thorax
     direction -0.000848408 0.998481 0.0550912   
     length 2.00867   
     axis 0 0 0   XYZ
    dof rx ry rz
    limits (-20.0 45.0)
           (-30.0 30.0)
           (-30.0 30.0)
  end
  begin
     id 14 
     name lowerneck
     direction -0.00577709 0.998999 0.0443608   
     length 1.75762   
     axis 0 0 0   XYZ
    dof rx ry rz
    limits (-20.0 45.0)
           (-30.0 30.0)
           (-30.0 30.0)
  end
  begin
     id 15 
     name upperneck
     direction 0.0320945 0.999136 0.0264105   
     length 1.72601   
     axis 0 0 0   XYZ
    dof rx ry rz
    limits (-20.0 45.0)
           (-30.0 30.0)
           (-30.0 30.0)
  end
  begin
     id 16
     name head
     direction 0.0120552 0.999916 0.00480151  
     length 1.79973  
     axis 0 0 0   XYZ
    dof rx ry rz
    limits (-20.0 45.0)
           (-30.0 30.0)
           (-30.0 30.0)
  end
  begin
     id 17 
     name lclavicle
     direction 0.909 0.371533 -0.188897  
     length 3.47956  
     axis 0 0 0   XYZ
    dof ry rz
    limits (-20.0 10.0)
           (0.0 20.0)
  end
  begin
     id 18 
     name lhumerus
     direction 1 -4.48963e-011 -6.48352e-028   
     length 5.52302   
     axis 180 -30 -90   XYZ
    dof rx ry rz
    limits (-60.0 90.0)
           (-90.0 90.0)
           (-90.0 90.0)
  end
  begin
     id 19
     name lradius
     direction 1 -4.48968e-011 -4.78536e-027   
     length 3.58675   
     axis 180 -30 -90   XYZ
    dof rx
    limits (-10.0 170.0)
  end
  begin
     id 20
     name lwrist
     direction 1 -4.48942e-011 -9.9435e-027   
     length 1.79337   
     axis 8.54312e-015 90 90   XYZ
    dof ry
    limits (-180.0 0.0)
 end
  begin
     id 21 
     name lhand
     direction 1 -4.4904e-011 -1.9887e-026   
     length 0.536412   
     axis 1.26896e-014 90 90   XYZ
    dof rx rz
    limits (-90.0 90.0)
           (-45.0 45.0)
  end
  begin
     id 22 
     name lfingers
     direction 1 -4.48893e-011 -3.9774e-026   
     length 0.432469   
     axis 2.53792e-014 90 90   XYZ
    dof rx
    limits (0.0 90.0)
  end
  begin
     id 23
     name lthumb
     direction 0.707107 -6.34934e-011 0.707107   
     length 0.620942   
     axis -90 45 2.85299e-015   XYZ
    dof rx rz
    limits (-45.0 45.0)
           (-45.0 45.0)
  end
  begin
     id 24 
     name rclavicle
     direction -0.89595 0.416672 -0.153813   
     length 3.44099  
     axis 0 0 0   XYZ 
    dof ry rz
    limits (-10.0 20.0)
           (-20.0 0.0)
  end
  begin
     id 25 
     name rhumerus
     direction -1 -4.48952e-011 5.57804e-028  
     length 5.8478   
     axis 180 30 90   XYZ
    dof rx ry rz
    limits (-90.0 60.0)
           (-90.0 90.0)
           (-90.0 90.0)
  end
  begin
     id 26 
     name rradius
     direction -1 -4.48967e-011 -7.93646e-027   
     length 3.62717   
     axis 180 30 90   XYZ
    dof rx
    limits (-10.0 170.0)
  end
  begin
     id 27 
     name rwrist
     direction -1 -4.49008e-011 -9.9435e-027   
     length 1.81359   
     axis 8.54312e-015 -90 -90   XYZ
    dof ry
    limits (-180.0 0.0)
  end
  begin
     id 28
     name rhand
     direction -1 -4.48812e-011 -1.9887e-026   
     length 0.650516   
     axis 1.26896e-014 -90 -90   XYZ
    dof rx rz
    limits (-90.0 90.0)
           (-45.0 45.0)
  end
  begin
     id 29
     name rfingers
     direction -1 -4.49228e-011 -3.9774e-026   
     length 0.524463   
     axis 2.53792e-014 -90 -90   XYZ
    dof rx
    limits (0.0 90.0)
  end
  begin
     id 30
     name rthumb
     direction -0.707107 -6.34912e-011 0.707107   
     length 0.753027   
     axis -90 -45 -2.85299e-015   XYZ
    dof rx rz
    limits (-45.0 45.0)
           (-45.0 45.0)
  end
:hierarchy
  begin
    root lhipjoint rhipjoint lowerback
    lhipjoint lfemur
    lfemur ltibia
    ltibia lfoot
    lfoot ltoes
    rhipjoint rfemur
    rfemur rtibia
    rtibia rfoot
    rfoot rtoes
    lowerback upperback
    upperback thorax
    thorax lowerneck lclavicle rclavicle
    lowerneck upperneck
    upperneck head
    lclavicle lhumerus
    lhumerus lradius
    lradius lwrist
    lwrist lhand lthumb
    lhand lfingers
    rclavicle rhumerus
    rhumerus rradius
    rradius rwrist
    rwrist rhand rthumb
    rhand rfingers
  end

#!OML:ASF F:\VICON\USERDATA\INSTALL\rory3\rory3.ASF
:FULLY-SPECIFIED
:DEGREES
960
root 8.73769 17.7478 -1.65598 -183.018 67.7042 -180.408
lowerback 5.63847 -8.8279 2.90551
upperback 1.69797 -11.3124 4.87639
thorax -0.921354 -5.57948 4.12023
lowerneck 3.09747 -16.782 4.34133
upperneck 31.8695 -20.6742 -6.09215
head 8.43046 -9.19374 -3.6774
rclavicle 1.34776e-013 3.65764e-014
rhumerus -51.0846 -22.7811 -56.4475
rradius 14.5487
rwrist 12.6355
rhand -20.7518 12.9251
rfingers 7.12502
rthumb 5.61396 -16.9806
lclavicle 1.34776e-013 3.65764e-014
lhumerus -27.9392 -5.21936 76.9453
lradius 28.0602
lwrist 11.7262
lhand -33.5099 19.345
lfingers 7.12502
lthumb -6.70647 49.2188
rfemur -0.871025 17.044 24.2821
rtibia 45.787
rfoot -4.41979 14.0539
rtoes 4.44219
lfemur -16.9571 -2.38619 -16.9108
ltibia 12.9907
lfoot 5.73461 17.4337
ltoes 7.75741
961
root 8.62417 17.729 -1.57112 -182.905 68.1373 -180.264
lowerback 5.83266 -8.74385 3.12312
upperback 1.78865 -11.1745 4.83144
thorax -0.99101 -5.50648 3.97923
lowerneck 2.86004 -16.7354 4.51812
upperneck 31.9025 -20.6344 -6.14968
head 8.45522 -9.16414 -3.74007
rclavicle 8.15017e-015 0
rhumerus -50.0588 -25.3298 -58.8405
rradius 13.995
rwrist 13.0053
rhand -25.3143 11.8364
rfingers 7.12502
rthumb 1.20798 -18.1399
lclavicle 8.15017e-015 0
lhumerus -27.9146 -5.20755 76.9668
lradius 27.8048
lwrist 11.4177
lhand -33.2424 18.8712
lfingers 7.12502
lthumb -6.44822 48.753
rfemur -0.216103 17.2226 24.7075
rtibia 44.5456
rfoot -6.73475 13.5247
rtoes 4.88572
lfemur -17.2737 -2.06758 -16.5801
ltibia 12.9448
lfoot 6.05403 17.3984
ltoes 7.4421
962
root 8.50252 17.715 -1.48772 -182.526 68.5836 -179.653
lowerback 6.37108 -8.58707 3.39062
upperback 1.87989 -10.8999 4.9019
thorax -1.23965 -5.36092 3.97612
lowerneck 2.81356 -16.7931 4.46206
upperneck 31.7491 -20.7345 -6.09783
head 8.41688 -9.22314 -3.71474
rclavicle -6.0033e-014 4.45278e-014
rhumerus -50.2031 -24.403 -57.6376
rradius 14.7481
rwrist 13.1289
rhand -19.9998 13.3859
rfingers 7.12502
rthumb 6.34004 -16.4993
lclavicle -6.0033e-014 4.45278e-014
lhumerus -27.7612 -5.13538 77.0698
lradius 27.3822
lwrist 10.7655
lhand -33.1459 18.79
lfingers 7.12502
lthumb -6.35509 48.6747
rfemur 0.467209 17.2615 25.2923
rtibia 43.2701
rfoot -8.727 12.2205
rtoes 6.35458
lfemur -17.3923 -1.72782 -15.9864
ltibia 12.7826
lfoot 6.11392 17.5199
ltoes 7.83742
963
root 8.3748 17.6983 -1.39144 -180.658 68.6368 -177.518
lowerback 6.91938 -8.70594 4.02392
upperback 1.92918 -10.9295 5.30426
thorax -1.52481 -5.35847 4.14802
lowerneck 2.87587 -16.7019 3.92305
upperneck 31.5059 -20.631 -5.91498
head 8.40744 -9.22873 -3.57337
rclavicle -1.23246e-014 -6.36111e-015
rhumerus -49.6623 -24.0511 -57.3712
rradius 14.9622
rwrist 14.1088
rhand -18.6417 13.858
rfingers 7.12502
rthumb 7.651 -15.9836
lclavicle -1.23246e-014 -6.36111e-015
lhumerus -27.6646 -4.31191 77.178
lradius 26.9069
lwrist 9.84753
lhand -33.2585 18.8365
lfingers 7.12502
lthumb -6.4638 48.7179
rfemur 0.902943 16.9521 26.5481
rtibia 42.0692
rfoot -10.3712 9.69586
rtoes 4.5953
lfemur -17.1421 -1.73699 -14.6522
ltibia 11.4596
lfoot 6.76832 17.9792
ltoes 7.45665
964
root 8.24644 17.6844 -1.28027 -179.228 68.5765 -175.947
lowerback 7.25486 -8.77642 4.63446
upperback 2.04785 -10.9339 5.35865
thorax -1.68676 -5.34876 3.93584
lowerneck 2.78893 -16.696 4.00098
upperneck 31.4267 -20.6685 -5.797
head 8.39917 -9.2348 -3.55246
rclavicle 2.60408e-014 1.90833e-014
rhumerus -49.3043 -24.5225 -57.7808
rradius 15.1496
rwrist 15.4068
rhand -19.6036 13.7431
rfingers 7.12502
rthumb 6.72253 -16.1301
lclavicle 2.60408e-014 1.90833e-014
lhumerus -27.4768 -4.50922 77.0595
lradius 26.5838
lwrist 9.82446
lhand -33.3598 19.3463
lfingers 7.12502
lthumb -6.56154 49.2247
rfemur 0.95721 15.8768 27.358
rtibia 40.9859
rfoot -11.6325 7.78543
rtoes 0.780275
lfemur -16.7505 -1.81741 -13.4511
ltibia 9.599
lfoot 8.19751 18.0744
ltoes 4.89341
965
root 8.1675 17.6928 -1.28484 -190.996 70.0302 -187.263
lowerback 7.48031 -8.02764 1.91539
upperback 2.64675 -10.2747 3.73866
thorax -1.03868 -5.06179 3.62027
lowerneck 2.75513 -16.7845 4.07502
upperneck 31.4402 -20.846 -5.57604
head 8.42479 -9.28795 -3.50541
rclavicle -8.62725e-014 5.40694e-014
rhumerus -48.8621 -25.498 -58.3069
rradius 15.225
rwrist 16.4855
rhand -20.648 13.8641
rfingers 7.12502
rthumb 5.71417 -16.0388
lclavicle -8.62725e-014 5.40694e-014
lhumerus -27.2328 -5.36505 77.1314
lradius 26.2553
lwrist 10.2751
lhand -33.5957 19.7316
lfingers 7.12502
lthumb -6.78933 49.6027
rfemur 3.63822 17.2008 22.6242
rtibia 40.0437
rfoot -11.8415 10.983
rtoes 24.886
lfemur -13.7411 -0.359354 -17.5308
ltibia 7.22017
lfoot 8.96055 17.6616
ltoes 1.86363
966
root 8.04593 17.7072 -1.19803 -190.447 70.5069 -186.721
lowerback 7.66112 -7.94506 2.17094
upperback 2.71292 -10.1256 3.86423
thorax -1.09666 -4.98125 3.6243
lowerneck 3.01146 -16.7511 3.8265
upperneck 31.2312 -20.8047 -5.39591
head 8.36143 -9.28809 -3.38347
rclavicle 1.15295e-014 -4.29375e-014
rhumerus -48.3746 -25.5827 -58.3988
rradius 15.7214
rwrist 17.0933
rhand -20.0714 14.074
rfingers 7.12502
rthumb 6.27087 -15.8132
lclavicle 1.15295e-014 -4.29375e-014
lhumerus -27.0121 -4.84602 77.1817
lradius 25.6102
lwrist 9.683
lhand -33.4573 19.3479
lfingers 7.12502
lthumb -6.65572 49.2233
rfemur 2.95834 15.6072 22.9509
rtibia 39.189
rfoot -14.6677 8.38828
rtoes 4.522
lfemur -12.7209 0.0480743 -16.5066
ltibia 4.40857
lfoot 9.99978 18.0579
ltoes 1.79712
967
root 7.92181 17.7095 -1.10582 -188.073 71.1745 -184.335
lowerback 7.72793 -7.88104 3.07619
upperback 2.79936 -9.94328 4.12025
thorax -1.15788 -4.87485 3.39895
lowerneck 3.34955 -16.7514 3.69754
upperneck 30.9836 -20.7958 -5.2645
head 8.25051 -9.29849 -3.28039
rclavicle -2.66371e-014 -4.77083e-015
rhumerus -47.6544 -25.4052 -58.3405
rradius 16.0955
rwrist 17.3811
rhand -18.1537 14.6644
rfingers 7.12502
rthumb 8.12196 -15.1595
lclavicle -2.66371e-014 -4.77083e-015
lhumerus -26.6751 -3.82851 77.0525
lradius 24.7385
lwrist 8.78749
lhand -33.2336 18.5271
lfingers 7.12502
lthumb -6.43971 48.4092
rfemur 2.41492 15.4707 24.3154
rtibia 38.6666
rfoot -15.3006 5.33608
rtoes -2.57685
lfemur -10.9658 0.581661 -14.5941
ltibia 2.70347e-014
lfoot 11.1931 19.354
ltoes 2.457
968
root 7.79941 17.7037 -1.00593 -182.518 72.3755 -179.268
lowerback 7.25409 -7.47914 4.72273
upperback 2.76163 -9.28565 4.56201
thorax -1.14397 -4.525 2.86417
lowerneck 3.48674 -16.9329 4.1515
upperneck 30.8523 -21.0115 -5.39289
head 8.10811 -9.37322 -3.35316
rclavicle 1.38553e-013 -6.83819e-014
rhumerus -47.3723 -25.7757 -58.1742
rradius 16.642
rwrist 17.4485
rhand -17.7617 15.0436
rfingers 7.12502
rthumb 8.50032 -14.7653
lclavicle 1.38553e-013 -6.83819e-014
lhumerus -26.2671 -3.56179 77.0747
lradius 23.9207
lwrist 7.97113
lhand -33.2173 18.5808
lfingers 7.12502
lthumb -6.42398 48.4634
rfemur 1.43721 17.1281 26.4429
rtibia 38.1546
rfoot -15.6894 3.81588
rtoes -1.83634
lfemur -12.0013 1.70527 -12.1248
ltibia 6.36111e-015
lfoot 10.5424 19.5304
ltoes 1.32313
969
root 7.66643 17.6654 -0.76006 -181.929 70.3125 -178.942
lowerback 8.02643 -7.95848 2.69921
upperback 2.41095 -9.99223 5.15683
thorax -1.46954 -4.89801 4.7377
lowerneck 3.69967 -16.9455 4.07061
upperneck 30.7328 -21.0166 -5.32527
head 8.04957 -9.38319 -3.2955
rclavicle -2.8625e-014 2.8625e-014
rhumerus -46.9908 -25.9011 -58.1543
rradius 17.1229
rwrist 17.5801
rhand -20.6087 14.3369
rfingers 7.12502
rthumb 5.75216 -15.565
lclavicle -2.8625e-014 2.8625e-014
lhumerus -26.1042 -3.3477 77.1429
lradius 23.2222
lwrist 7.23218
lhand -33.3703 19.1867
lfingers 7.12502
lthumb -6.57171 49.0648
rfemur 0.530912 16.4146 27.2635
rtibia 37.7843
rfoot -15.9646 2.86733
rtoes 1.1867
lfemur -13.7054 -0.210437 -11.094
ltibia 0
lfoot 10.7136 19.6867
ltoes -0.618416
970
root 7.55596 17.6631 -0.67242 -182.858 71.1455 -179.434
lowerback 8.51213 -7.86477 2.59543
upperback 2.59182 -9.85359 5.01468
thorax -1.56327 -4.82615 4.69246
lowerneck 3.86398 -16.7413 3.68227
upperneck 30.9364 -20.704 -5.30811
head 8.14991 -9.26077 -3.23575
rclavicle 1.11518e-013 -4.45278e-014
rhumerus -46.3574 -25.8572 -58.6974
rradius 17.3779
rwrist 18.5701
rhand -17.6436 15.6018
rfingers 7.12502
rthumb 8.61424 -14.2024
lclavicle 1.11518e-013 -4.45278e-014
lhumerus -26.1881 -3.04662 77.0169
lradius 22.6565
lwrist 6.98861
lhand -33.2552 19.2403
lfingers 7.12502
lthumb -6.46061 49.1218
rfemur 0.746893 16.2075 27.0986
rtibia 37.3354
rfoot -16.3714 3.56775
rtoes 2.99184
lfemur -13.2514 0.517795 -10.5798
ltibia -2.22639e-014
lfoot 9.40682 19.4374
ltoes -1.19394
